<svg height="512pt" viewBox="-16 0 512 512" width="512pt" xmlns="http://www.w3.org/2000/svg"><path d="m390 120v90l-30 30h-322.5l-37.5-60v-60zm0 0" fill="#4a696f"/><path d="m390 120v90l-30 30h-165v-120zm0 0" fill="#384949"/><path d="m330 90v180h-270v-270h150zm0 0" fill="#e6ffff"/><path d="m330 90v180h-135v-270h15zm0 0" fill="#d9f2ff"/><path d="m229.539062 0h-19.539062v90h120v-23.027344zm0 0" fill="#cdf"/><path d="m171.300781 210-30-30h-141.300781v242h390v-212zm0 0" fill="#ffda2d"/><path d="m195 210h195v212h-195zm0 0" fill="#fdbf00"/><path d="m437.402344 405.800781 30.597656-30.300781-155.699219-31.199219 31.199219 155.699219 30.300781-30.601562 42.597657 42.601562 63.601562-63.601562zm0 0" fill="#57d9ad"/><path d="m480 448.398438-31.800781 31.800781-135.898438-135.898438 155.699219 31.199219-30.597656 30.300781zm0 0" fill="#26bfa6"/></svg>